<svg xmlns="http://www.w3.org/2000/svg" viewBox="0 0 274.13 283.18" fill-rule="evenodd" clip-rule="evenodd">
  <path fill="#1A1A1A" d="M272.56 54.94l1.57 227.09 -165.66 1.14c-58.59,0.41 -106.85,-47.2 -107.26,-105.79l-1.21 -175.89 216.86 -1.49c30.43,-0.21 55.49,24.51 55.7,54.94zm-102.07 87.13c0.12,17.99 -14.36,32.67 -32.35,32.79 -17.99,0.12 -32.67,-14.36 -32.79,-32.35 -0.12,-17.99 14.36,-32.67 32.35,-32.79 17.99,-0.12 32.67,14.36 32.79,32.35zm74.36 -15.98c-1.36,-10.59 -4.64,-20.52 -9.2,-29.8 -16.94,-34.88 -52.75,-59.04 -94.49,-58.76l-9.96 0.07c-38.21,0.26 -71.46,21.04 -89.23,51.67 -1.59,2.9 -3.17,5.48 -4.44,8.38 -6.33,13.53 -9.75,28.97 -9.64,44.7 0.11,16.05 3.75,31.12 10.26,44.56 7.82,16.32 19.47,30.05 33.99,40.23 16.46,11.45 36.41,18.37 57.93,18.87 39.83,-1.55 46.83,-38.61 46.79,-59.57l0 -0.23 0 -0.23 0 -0.23 0 -0 -0 -0.23 -0 -0.23 -0 -0.23 -0 -0.22 -0.01 -0.22 -0 -0.22 -0 0 -0.01 -0.22 -0.01 -0.22 -0.01 -0.21 -0.01 -0.21 -0.01 -0.21 0 -0 -0.01 -0.21 -0.01 -0.21 -0.01 -0.21 0 0 -0.02 -0.2 -0.02 -0.2 -0.02 -0.2 -0.02 -0.2 -0.02 -0.2 -0.02 -0.19 -0.02 -0.19 0 0 -0.02 -0.19 -0 0 -0.02 -0.19 0 0 -0.03 -0.18 0 -0 -0.03 -0.18 -0.03 -0.18 -0.03 -0.18 0 0 -0.03 -0.17 0 -0 -0.03 -0.17 0 0 -0.03 -0.17 -0.03 -0.17 0 -0 -0.04 -0.17 -0.04 -0.16 0 -0 -0.04 -0.16 0 -0 -0.04 -0.16 -0.04 -0.16 -0.04 -0.16 0 0 -0.04 -0.15 0 -0 -0.05 -0.15 -0.05 -0.15 -0.05 -0.14 0 -0 -0.05 -0.14 0 -0 -0.05 -0.14 -0 -0 -0.05 -0.14 -0 0 -0.05 -0.13 -0 -0 -0.05 -0.13 -0 0 -0.06 -0.13 -0 -0 -0.06 -0.12 -0 0 -0.06 -0.12 0 -0 -0.06 -0.12 0 0 -0.06 -0.12 -0 -0 -0.06 -0.11 0 0 -0.07 -0.11 0 -0 -0.07 -0.11 -0.07 -0.11 -0 0 -0.07 -0.1 0 0 -0.07 -0.1 0 0 -0.08 -0.1 0 -0 -0.08 -0.09 0 -0 -0.08 -0.09 0 -0 -0.08 -0.08 0 -0 2.25 -5.51 -2.25 5.51 2.25 -5.51 -2.25 5.51c-0.61,-0.63 -1.38,-1 -2.33,-1.05 -12.97,11.56 -24.14,11.53 -40.05,11.64 -12.2,0.08 -23.47,-4.66 -31.56,-12.62 -8.08,-7.97 -13.3,-19.18 -13.38,-31.7 -0.1,-14.77 7.19,-27.98 18.37,-36.09 7.35,-5.51 16.32,-8.78 25.95,-8.85l9.95 -0.07c24.72,-0.17 44.77,19.92 44.94,44.32l0.29 41.43 0.02 3.21 0.41 59.73 59.72 -0.41 -0.72 -104.36c-0.03,-4.81 -0.39,-9.95 -1.39,-14.76z"/>
  <circle fill="#6699FF" cx="138.7" cy="143.22" r="34.21"/>
</svg>
